<?xml version="1.0" encoding="UTF-8"?>
<svg id="Layer_1" xmlns="http://www.w3.org/2000/svg" version="1.1" viewBox="0 0 1800 350">
  <!-- Generator: Adobe Illustrator 29.0.0, SVG Export Plug-In . SVG Version: 2.1.0 Build 186)  -->
  <defs>
    <style>
      .st0 {
        fill: #81b6e3;
      }

      .st1 {
        fill: #3d8dae;
      }

      .st2 {
        fill: #24303c;
      }

      .st3 {
        fill: #043673;
      }
    </style>
  </defs>
  <g>
    <rect class="st3" x="214.71" y="88.48" width="59.96" height="59.96" rx="4.98" ry="4.98" transform="translate(155.43 -138.33) rotate(45)"/>
    <rect class="st0" x="327.79" y="201.56" width="59.96" height="59.96" rx="4.98" ry="4.98" transform="translate(268.51 -185.16) rotate(45)"/>
    <rect class="st0" x="214.71" y="201.56" width="59.96" height="59.96" rx="5.01" ry="5.01" transform="translate(235.39 -105.21) rotate(45)"/>
    <rect class="st0" x="101.64" y="201.56" width="59.96" height="59.96" rx="5" ry="5" transform="translate(202.27 -25.25) rotate(45)"/>
    <rect class="st1" x="271.25" y="145.02" width="59.96" height="59.96" rx="5.01" ry="5.01" transform="translate(211.97 -161.75) rotate(45)"/>
    <rect class="st1" x="158.18" y="145.02" width="59.96" height="59.96" rx="5.02" ry="5.02" transform="translate(178.85 -81.79) rotate(45)"/>
  </g>
  <g>
    <polygon class="st2" points="650.02 107.61 650.02 167.86 571.1 167.86 571.1 107.61 558.34 107.61 558.34 242.48 571.1 242.48 571.1 180.03 650.02 180.03 650.02 242.48 662.78 242.48 662.78 107.61 650.02 107.61"/>
    <path class="st2" d="M785,108.47l-.35-.87h-13.69s-53.95,134.88-53.95,134.88h13.58s16.61-41.44,16.61-41.44h61.19s16.61,41.44,16.61,41.44h13.58s-53.6-134.01-53.6-134.01ZM803.71,189.08h-51.81s25.81-66.48,25.81-66.48l26,66.48Z"/>
    <path class="st2" d="M981.02,183.84c-4.15-4.69-9.5-7.98-15.97-9.83,5.74-1.99,10.35-5.22,13.73-9.63,4.3-5.63,6.48-12.48,6.48-20.36,0-11.58-3.73-20.65-11.09-26.97-7.3-6.27-18.51-9.44-33.33-9.44h-48.02s0,134.88,0,134.88h48.02c15.33,0,27.27-3.27,35.48-9.7,8.32-6.51,12.54-15.7,12.54-27.31,0-8.45-2.64-15.73-7.85-21.64ZM941.05,168.46h-35.45v-48.89h35.45c20.76,0,30.85,7.99,30.85,24.44,0,16.45-10.09,24.44-30.85,24.44ZM942.85,230.52h-37.26v-50.09h37.26c10.97,0,19.27,2.16,24.67,6.41,5.37,4.24,7.98,10.33,7.98,18.64,0,8.17-2.62,14.23-7.99,18.54-5.39,4.32-13.69,6.5-24.66,6.5Z"/>
    <rect class="st2" x="1052.37" y="107.61" width="12.77" height="134.88"/>
    <polygon class="st2" points="1120.63 107.61 1120.63 119.58 1168.88 119.58 1168.88 242.48 1181.64 242.48 1181.64 119.58 1229.89 119.58 1229.89 107.61 1120.63 107.61"/>
    <polygon class="st2" points="1298.14 230.52 1298.14 180.03 1361.6 180.03 1361.6 167.86 1298.14 167.86 1298.14 119.58 1378.42 119.58 1378.42 107.61 1285.38 107.61 1285.38 242.48 1378.4 242.48 1378.4 230.52 1298.14 230.52"/>
    <path class="st2" d="M1532.28,201.24l-.43,1.38c-2.83,9.13-7.9,16.19-15.07,20.98-7.21,4.81-16.11,7.25-26.45,7.25-9.57,0-18.08-2.25-25.28-6.7-7.21-4.44-12.86-10.89-16.8-19.17-3.96-8.34-5.98-18.43-5.98-29.98,0-11.68,2.04-21.79,6.07-30.07,4.01-8.22,9.72-14.64,17-19.09,7.29-4.45,15.83-6.7,25.39-6.7,10.46,0,19.02,2.24,25.43,6.66,6.39,4.42,11.14,11.03,14.1,19.66l.49,1.43,12.34-5.63-.4-1.13c-2.46-7.03-6.13-13.05-10.92-17.91-4.79-4.85-10.73-8.57-17.64-11.03-6.87-2.44-14.94-3.68-24-3.68-12.21,0-23.05,2.78-32.25,8.27-9.19,5.5-16.41,13.38-21.44,23.42-5.01,9.99-7.55,22.03-7.55,35.8,0,13.77,2.57,25.82,7.65,35.81,5.09,10.04,12.34,17.92,21.53,23.41,9.19,5.48,20.04,8.27,32.25,8.27,8.82,0,16.9-1.41,24.04-4.18,7.16-2.78,13.39-6.89,18.51-12.2,5.11-5.3,9.02-11.69,11.61-18.96l.44-1.23-12.64-4.67Z"/>
    <polygon class="st2" points="1695.94 107.61 1695.94 167.86 1617.03 167.86 1617.03 107.61 1604.26 107.61 1604.26 242.48 1617.03 242.48 1617.03 180.03 1695.94 180.03 1695.94 242.48 1708.71 242.48 1708.71 107.61 1695.94 107.61"/>
  </g>
</svg>